<?xml version="1.0" standalone="no"?>
<svg xmlns="http://www.w3.org/2000/svg" viewBox="0 0 114 63" width="114" height="63"><g fill="#209d1a" color="#209d1a" transform="translate(39.331 0) scale(0.6481482) "><svg width="54.0" height="43.0" x="0.0" y="0.0" viewBox="0 0 54 43"><path fill="currentColor" fill-rule="evenodd" d="M23.479 7.8l3.188-3.022 4.047 3.907a.895.895 0 0 0 .157.119l-3.228 3.286-4.164-4.29zm16.17 30.37c1.91 0 2.923.877 3.738 1.581.745.643 1.333 1.151 2.586 1.151a.881.881 0 1 1 0 1.763c-1.909 0-2.923-.876-3.738-1.58-.745-.643-1.333-1.151-2.586-1.151s-1.842.508-2.586 1.151c-.816.705-1.829 1.58-3.739 1.58-1.909 0-2.923-.876-3.738-1.58-.745-.643-1.333-1.151-2.586-1.151s-1.84.508-2.586 1.151c-.815.705-1.829 1.58-3.739 1.58-1.909 0-2.923-.876-3.738-1.58-.745-.643-1.333-1.151-2.587-1.151-1.253 0-1.842.508-2.586 1.151-.815.705-1.829 1.58-3.739 1.58a.881.881 0 1 1 0-1.762c1.254 0 1.842-.508 2.587-1.151.815-.705 1.83-1.58 3.738-1.58 1.91 0 2.923.875 3.739 1.579.745.643 1.333 1.151 2.586 1.151s1.842-.508 2.586-1.151c.816-.704 1.83-1.58 3.739-1.58 1.91 0 2.923.876 3.738 1.58.745.643 1.333 1.151 2.586 1.151s1.842-.508 2.587-1.151c.815-.704 1.829-1.58 3.738-1.58zm4.763-7.286c2.466 0 3.746.942 4.875 1.773 1.043.769 1.943 1.431 3.83 1.431a.882.882 0 1 1 .001 1.764c-2.465 0-3.746-.943-4.875-1.774-1.043-.768-1.943-1.431-3.83-1.431s-2.788.663-3.831 1.43c-1.13.832-2.409 1.774-4.876 1.774-2.465 0-3.745-.942-4.875-1.774-1.042-.768-1.943-1.43-3.83-1.43s-2.787.662-3.83 1.43c-1.13.831-2.41 1.774-4.876 1.774s-3.746-.942-4.876-1.774c-1.042-.768-1.943-1.43-3.83-1.43-1.888 0-2.789.662-3.832 1.43-1.13.831-2.41 1.774-4.876 1.774a.881.881 0 0 1 0-1.762c1.887 0 2.788-.663 3.83-1.431 1.13-.831 2.41-1.774 4.877-1.774 2.466 0 3.746.942 4.876 1.774 1.042.768 1.943 1.43 3.83 1.43s2.788-.662 3.831-1.43c1.13-.832 2.41-1.774 4.876-1.774s3.746.942 4.875 1.774c1.043.768 1.943 1.43 3.83 1.43s2.788-.662 3.83-1.43c1.13-.832 2.41-1.774 4.876-1.774zM16.256.378l.127.11.022.023 5.846 6.024 3.212-3.042a1.761 1.761 0 0 1 2.305-.092l.123.108 4.047 3.907.072.08.06.087 3.786-3.856a1.767 1.767 0 0 1 2.35-.146l.126.11 11.872 11.416a.881.881 0 0 1-1.132 1.346l-.089-.075L37.112 4.963 26.14 16.138l-.067.06-.069.053a.89.89 0 0 1-.153.082l-.007.003-.077.027-.08.02-.08.013-.08.005h-.021l-11.384-.045a1.63 1.63 0 0 0-.136 3.252l.14.006h29.59c2.37 0 4.3 1.929 4.3 4.3 0 2.043-1.358 3.11-4.037 3.175l-.263.003H4.087a.882.882 0 0 1-.111-1.757l.11-.007h39.63c2.344 0 2.537-.67 2.537-1.415a2.54 2.54 0 0 0-2.37-2.531l-.166-.006h-29.59a3.395 3.395 0 0 1-3.392-3.391 3.396 3.396 0 0 1 3.206-3.387l.185-.005 11.016.044 1.266-1.289L15.164 1.763 5.221 12.806a.88.88 0 0 1-1.383-1.085l.074-.094L13.9.533a1.766 1.766 0 0 1 2.356-.155z"></path></svg></g><line x1="40.380078125" y1="33.87037037037037" x2="73.28007812499999" y2="33.87037037037037" stroke="#4367a5" stroke-linecap="round"></line><path fill="#4367a5" fill-rule="nonzero" d="M0 8.77L0 8.77Q0 6.75 0.56 5.13Q1.11 3.50 2.20 2.37Q3.29 1.23 4.92 0.62Q6.54 0 8.68 0L8.68 0Q9.12 0 9.67 0.04Q10.23 0.07 10.81 0.14Q11.39 0.21 11.94 0.33Q12.49 0.45 12.92 0.62Q13.35 0.79 13.61 1.01Q13.88 1.24 13.88 1.54L13.88 1.54Q13.88 1.75 13.73 1.99L13.73 1.99L12.75 3.64Q12.36 3.43 11.84 3.08Q11.31 2.72 10.67 2.38Q10.03 2.05 9.30 1.80Q8.57 1.56 7.78 1.56L7.78 1.56Q6.86 1.56 6.15 1.86Q5.44 2.16 4.91 2.67Q4.38 3.19 4.03 3.87Q3.67 4.56 3.45 5.33Q3.23 6.11 3.14 6.92Q3.05 7.73 3.05 8.50L3.05 8.50Q3.05 9.43 3.22 10.33Q3.39 11.23 3.73 12.02Q4.08 12.82 4.59 13.48Q5.11 14.14 5.80 14.63Q6.49 15.11 7.36 15.38Q8.23 15.64 9.27 15.64L9.27 15.64Q10.15 15.64 11.00 15.49Q11.86 15.34 12.56 15.15L12.56 15.15Q13.37 14.94 14.11 14.66L14.11 14.66L14.59 15.57Q13.93 16.09 13.20 16.45Q12.47 16.80 11.68 17.03Q10.89 17.25 10.06 17.35Q9.23 17.45 8.40 17.45L8.40 17.45Q6.48 17.45 4.93 16.84Q3.38 16.23 2.28 15.10Q1.18 13.97 0.59 12.36Q0 10.76 0 8.77ZM16.00 5.31L16.00 5.31Q16.24 5.20 16.69 5.11Q17.13 5.02 17.67 4.96Q18.20 4.90 18.76 4.86Q19.31 4.83 19.77 4.83L19.77 4.83Q20.02 4.83 20.20 4.84Q20.39 4.85 20.52 4.91Q20.65 4.97 20.71 5.09Q20.78 5.21 20.78 5.45L20.78 5.45L20.78 8.26L22.27 6.14Q22.83 5.37 23.51 5.00Q24.20 4.63 25.07 4.63L25.07 4.63Q25.22 4.63 25.46 4.65Q25.70 4.66 25.93 4.73Q26.16 4.80 26.32 4.93Q26.48 5.06 26.48 5.29L26.48 5.29Q26.48 5.34 26.48 5.38Q26.48 5.41 26.46 5.47L26.46 5.47L25.96 7.13Q25.51 6.98 25.15 6.93Q24.80 6.87 24.49 6.87L24.49 6.87Q23.86 6.87 23.29 7.22Q22.71 7.58 22.23 8.07Q21.75 8.55 21.38 9.05Q21.01 9.55 20.78 9.82L20.78 9.82L20.78 13.46Q20.78 14.19 20.81 14.74Q20.85 15.29 20.90 15.70Q20.95 16.11 21.01 16.39Q21.07 16.66 21.11 16.83L21.11 16.83Q20.94 16.92 20.74 16.99Q20.53 17.05 20.30 17.10Q20.07 17.16 19.85 17.18Q19.62 17.20 19.43 17.20L19.43 17.20Q19.13 17.20 18.88 17.15Q18.63 17.10 18.45 16.97Q18.26 16.84 18.16 16.62Q18.06 16.41 18.06 16.08L18.06 16.08L18.06 6.19L16.00 6.19L16.00 5.31ZM39.79 4.78L39.79 4.78Q40.01 4.78 40.15 4.90Q40.30 5.02 40.38 5.20Q40.46 5.39 40.49 5.61Q40.52 5.82 40.52 6.02L40.52 6.02Q40.52 6.71 40.33 7.59Q40.14 8.46 39.80 9.43Q39.47 10.41 39.04 11.44Q38.61 12.47 38.15 13.46Q37.69 14.45 37.21 15.36Q36.74 16.27 36.33 16.99L36.33 16.99Q35.95 17.65 35.54 18.33Q35.12 19.01 34.63 19.65Q34.15 20.30 33.58 20.87Q33.01 21.43 32.35 21.86Q31.69 22.29 30.90 22.54Q30.12 22.78 29.20 22.78L29.20 22.78Q29.03 22.78 28.71 22.76Q28.39 22.73 28.10 22.66Q27.80 22.59 27.57 22.46Q27.35 22.32 27.35 22.10L27.35 22.10Q27.35 22.04 27.36 22.01Q27.38 21.97 27.40 21.91L27.40 21.91L28.04 20.18Q28.92 20.44 29.57 20.64Q30.22 20.84 30.79 20.84L30.79 20.84Q31.28 20.84 31.78 20.53Q32.29 20.21 32.74 19.76Q33.19 19.30 33.55 18.77Q33.91 18.23 34.15 17.79L34.15 17.79L29.41 6.94L27.64 7.72L27.21 6.94Q27.49 6.68 27.91 6.30Q28.34 5.93 28.83 5.60Q29.32 5.26 29.85 5.02Q30.38 4.78 30.88 4.78L30.88 4.78Q31.17 4.78 31.42 4.90Q31.68 5.03 31.77 5.33L31.77 5.33Q31.77 5.36 31.93 5.74Q32.09 6.13 32.34 6.76Q32.60 7.38 32.93 8.19Q33.26 8.99 33.61 9.84Q33.96 10.70 34.31 11.54Q34.65 12.38 34.94 13.07Q35.23 13.76 35.43 14.24Q35.64 14.73 35.71 14.88L35.71 14.88Q36.11 14.14 36.54 13.25Q36.98 12.35 37.35 11.43Q37.71 10.50 37.95 9.62Q38.18 8.74 38.18 8.04L38.18 8.04Q38.18 7.42 38.03 6.83Q37.88 6.25 37.57 5.73L37.57 5.73L39.12 4.97Q39.53 4.78 39.79 4.78ZM47.23 7.15L47.23 14.79Q47.55 14.98 47.92 15.18Q48.29 15.39 48.69 15.55Q49.09 15.71 49.52 15.83Q49.95 15.94 50.39 15.94L50.39 15.94Q51.21 15.94 51.81 15.54Q52.41 15.14 52.79 14.46Q53.18 13.77 53.37 12.86Q53.55 11.94 53.55 10.92L53.55 10.92Q53.55 9.79 53.44 8.88Q53.32 7.97 53.03 7.34Q52.73 6.70 52.25 6.36Q51.76 6.02 51.01 6.02L51.01 6.02Q50.38 6.02 49.72 6.20Q49.07 6.38 48.50 6.59L48.50 6.59Q47.86 6.83 47.23 7.15L47.23 7.15ZM47.55 22.39L47.55 22.39Q47.39 22.49 47.19 22.56Q46.98 22.63 46.75 22.68Q46.52 22.72 46.29 22.75Q46.07 22.78 45.88 22.78L45.88 22.78Q45.28 22.78 44.89 22.52Q44.51 22.25 44.51 21.60L44.51 21.60L44.51 6.16L42.42 6.16L42.42 5.29Q42.67 5.18 43.11 5.09Q43.56 4.99 44.10 4.93Q44.64 4.88 45.20 4.84Q45.76 4.80 46.22 4.80L46.22 4.80Q46.46 4.80 46.65 4.82Q46.84 4.83 46.97 4.89Q47.10 4.95 47.16 5.07Q47.23 5.19 47.23 5.43L47.23 5.43L47.23 5.98Q47.57 5.73 48.03 5.48Q48.49 5.24 49.03 5.05Q49.57 4.86 50.17 4.75Q50.77 4.63 51.40 4.63L51.40 4.63Q52.84 4.63 53.81 5.18Q54.79 5.73 55.38 6.63Q55.98 7.52 56.23 8.65Q56.48 9.79 56.48 10.95L56.48 10.95Q56.48 11.73 56.34 12.52Q56.19 13.30 55.89 14.02Q55.59 14.73 55.14 15.34Q54.69 15.95 54.09 16.39Q53.48 16.84 52.73 17.10Q51.97 17.36 51.06 17.36L51.06 17.36Q50.23 17.36 49.52 17.18Q48.82 17.00 48.31 16.79Q47.80 16.57 47.51 16.39Q47.23 16.21 47.23 16.20L47.23 16.20L47.23 19.03Q47.23 19.76 47.26 20.31Q47.30 20.86 47.35 21.27Q47.40 21.68 47.46 21.96Q47.52 22.23 47.55 22.39ZM62.84 16.03L62.84 2.09Q61.73 2.09 60.76 2.17Q59.78 2.25 58.97 2.36Q58.17 2.46 57.58 2.56Q56.99 2.66 56.67 2.71L56.67 2.71Q56.67 2.70 56.64 2.55Q56.61 2.41 56.57 2.19Q56.52 1.97 56.48 1.72Q56.45 1.46 56.45 1.28L56.45 1.28Q56.45 0.89 56.79 0.71Q57.14 0.53 57.74 0.46Q58.34 0.40 59.13 0.42Q59.93 0.43 60.84 0.43L60.84 0.43L64.28 0.43Q64.82 0.43 65.60 0.43Q66.39 0.43 67.35 0.40Q68.32 0.36 69.43 0.28Q70.54 0.20 71.70 0.05L71.70 0.05L71.70 0.05Q71.70 0.06 71.73 0.17Q71.77 0.28 71.80 0.46Q71.84 0.64 71.87 0.87Q71.91 1.10 71.91 1.35L71.91 1.35Q71.91 1.64 71.70 1.80Q71.50 1.97 71.16 2.04Q70.82 2.12 70.38 2.14Q69.94 2.16 69.46 2.16L69.46 2.16Q68.12 2.16 67.20 2.13Q66.27 2.11 65.60 2.09L65.60 2.09L65.60 13.30Q65.60 14.05 65.64 14.63Q65.68 15.20 65.74 15.63Q65.80 16.05 65.86 16.34Q65.92 16.63 65.95 16.80L65.95 16.80Q65.78 16.90 65.57 16.97Q65.36 17.05 65.13 17.10Q64.90 17.16 64.68 17.18Q64.45 17.20 64.25 17.20L64.25 17.20Q63.95 17.20 63.69 17.14Q63.42 17.09 63.23 16.95Q63.05 16.82 62.94 16.59Q62.84 16.37 62.84 16.03L62.84 16.03ZM84.52 11.02L84.52 11.02Q84.52 12.45 84.02 13.62Q83.52 14.79 82.65 15.62Q81.77 16.45 80.60 16.90Q79.43 17.36 78.09 17.36L78.09 17.36Q76.73 17.36 75.56 16.90Q74.38 16.44 73.51 15.61Q72.64 14.78 72.14 13.61Q71.64 12.45 71.64 11.02L71.64 11.02Q71.64 9.57 72.14 8.40Q72.64 7.22 73.51 6.38Q74.38 5.54 75.56 5.09Q76.73 4.63 78.09 4.63L78.09 4.63Q79.44 4.63 80.61 5.09Q81.79 5.54 82.65 6.38Q83.52 7.22 84.02 8.40Q84.52 9.57 84.52 11.02ZM74.53 10.99L74.53 10.99Q74.53 11.99 74.68 12.91Q74.84 13.84 75.24 14.55Q75.64 15.26 76.33 15.68Q77.02 16.10 78.09 16.10L78.09 16.10Q79.16 16.10 79.85 15.68Q80.53 15.26 80.92 14.55Q81.32 13.84 81.47 12.91Q81.62 11.99 81.62 10.99L81.62 10.99Q81.62 10.00 81.47 9.07Q81.32 8.14 80.92 7.44Q80.53 6.73 79.85 6.30Q79.16 5.88 78.09 5.88L78.09 5.88Q77.02 5.88 76.33 6.30Q75.64 6.73 75.24 7.44Q74.84 8.14 74.68 9.07Q74.53 10.00 74.53 10.99ZM96.84 6.12L94.78 6.12L94.78 5.23Q95.03 5.12 95.47 5.03Q95.92 4.95 96.45 4.89Q96.98 4.83 97.54 4.79Q98.10 4.76 98.55 4.76L98.55 4.76Q98.80 4.76 98.99 4.77Q99.18 4.78 99.30 4.84Q99.43 4.90 99.50 5.02Q99.56 5.14 99.56 5.38L99.56 5.38L99.56 15.82L101.60 15.82L101.60 16.70Q101.40 16.80 101.06 16.90Q100.71 16.99 100.29 17.06Q99.87 17.13 99.41 17.17Q98.95 17.20 98.53 17.20L98.53 17.20Q98.17 17.20 97.86 17.16Q97.56 17.12 97.33 17.00Q97.10 16.88 96.97 16.66Q96.84 16.44 96.84 16.08L96.84 16.08L96.84 15.98Q96.84 15.97 96.64 16.07Q96.43 16.17 96.08 16.32Q95.72 16.48 95.24 16.65Q94.77 16.83 94.23 16.99Q93.69 17.14 93.12 17.25Q92.54 17.36 92.00 17.36L92.00 17.36Q90.95 17.36 90.29 17.08Q89.64 16.80 89.28 16.31Q88.92 15.81 88.79 15.12Q88.66 14.44 88.66 13.63L88.66 13.63L88.66 6.12L86.60 6.12L86.60 5.23Q86.85 5.12 87.29 5.03Q87.74 4.95 88.27 4.89Q88.79 4.83 89.35 4.79Q89.91 4.76 90.36 4.76L90.36 4.76Q90.61 4.76 90.80 4.77Q90.98 4.78 91.11 4.84Q91.24 4.90 91.31 5.02Q91.37 5.14 91.37 5.38L91.37 5.38L91.37 13.39Q91.37 13.99 91.44 14.41Q91.50 14.84 91.68 15.11Q91.86 15.38 92.19 15.50Q92.51 15.62 93.01 15.62L93.01 15.62Q93.30 15.62 93.71 15.57Q94.11 15.52 94.54 15.44Q94.97 15.36 95.38 15.28Q95.80 15.19 96.13 15.11Q96.46 15.04 96.65 14.98Q96.84 14.93 96.84 14.93L96.84 14.93L96.84 6.12ZM103.17 5.31L103.17 5.31Q103.42 5.20 103.86 5.11Q104.31 5.02 104.84 4.96Q105.38 4.90 105.93 4.86Q106.49 4.83 106.95 4.83L106.95 4.83Q107.19 4.83 107.38 4.84Q107.57 4.85 107.70 4.91Q107.82 4.97 107.89 5.09Q107.95 5.21 107.95 5.45L107.95 5.45L107.95 8.26L109.44 6.14Q110.00 5.37 110.69 5.00Q111.38 4.63 112.24 4.63L112.24 4.63Q112.39 4.63 112.63 4.65Q112.88 4.66 113.10 4.73Q113.33 4.80 113.50 4.93Q113.66 5.06 113.66 5.29L113.66 5.29Q113.66 5.34 113.66 5.38Q113.66 5.41 113.64 5.47L113.64 5.47L113.13 7.13Q112.69 6.98 112.33 6.93Q111.97 6.87 111.67 6.87L111.67 6.87Q111.04 6.87 110.46 7.22Q109.89 7.58 109.41 8.07Q108.93 8.55 108.56 9.05Q108.19 9.55 107.95 9.82L107.95 9.82L107.95 13.46Q107.95 14.19 107.99 14.74Q108.02 15.29 108.08 15.70Q108.13 16.11 108.19 16.39Q108.25 16.66 108.28 16.83L108.28 16.83Q108.12 16.92 107.91 16.99Q107.71 17.05 107.48 17.10Q107.25 17.16 107.02 17.18Q106.79 17.20 106.61 17.20L106.61 17.20Q106.30 17.20 106.05 17.15Q105.81 17.10 105.62 16.97Q105.43 16.84 105.33 16.62Q105.23 16.41 105.23 16.08L105.23 16.08L105.23 6.19L103.17 6.19L103.17 5.31Z" transform="translate(0, 39.871)"></path></svg>